<?xml version="1.0" encoding="utf-8"?>
<!-- Generator: Adobe Illustrator 27.0.0, SVG Export Plug-In . SVG Version: 6.00 Build 0)  -->
<svg version="1.1" xmlns="http://www.w3.org/2000/svg" xmlns:xlink="http://www.w3.org/1999/xlink" x="0px" y="0px"
	 viewBox="0 0 1000 1000" style="enable-background:new 0 0 1000 1000;" xml:space="preserve">
<style type="text/css">
	.st0{display:none;}
	.st1{fill:none;stroke:#000000;stroke-width:50;stroke-linecap:round;stroke-miterlimit:10;}
	.st2{fill:none;stroke:#000000;stroke-width:70;stroke-linecap:round;stroke-miterlimit:10;}
</style>
<g id="Layer_1">
</g>
<g id="Layer_2" class="st0">
	
		<image style="display:inline;overflow:visible;" width="360" height="437" xlink:href="../../../../../../Desktop/png-transparent-password-manager-computer-icons-password-strength-password-safe-chang-miscellaneous-password-strength-password-safe-thumbnail.png"  transform="matrix(2.2897 0 0 2.2897 87.7416 0)">
	</image>
</g>
<g id="Layer_3">
	<g>
		<path d="M765.9,384c42.5,0,77.1,34.6,77.1,77.1v421.8c0,42.5-34.6,77.1-77.1,77.1H234.1c-42.5,0-77.1-34.6-77.1-77.1V461.1
			c0-42.5,34.6-77.1,77.1-77.1H765.9 M765.9,344H234.1C169.4,344,117,396.4,117,461.1v421.8c0,64.7,52.4,117.1,117.1,117.1h531.8
			c64.7,0,117.1-52.4,117.1-117.1V461.1C883,396.4,830.6,344,765.9,344L765.9,344z"/>
	</g>
	<path class="st1" d="M272,343.8v-80.8"/>
	<path class="st1" d="M727.8,263.1v80.8"/>
	<path class="st1" d="M272,269.8c0-128.7,102.1-232.9,228-232.9s228,104.3,228,232.9"/>
	<path class="st2" d="M499.9,735.8V869"/>
	<circle cx="500" cy="681.7" r="76"/>
</g>
</svg>
