<?xml version="1.0" encoding="utf-8"?>
<!-- Generator: Adobe Illustrator 27.0.0, SVG Export Plug-In . SVG Version: 6.00 Build 0)  -->
<svg version="1.1" id="Layer_1" xmlns="http://www.w3.org/2000/svg" xmlns:xlink="http://www.w3.org/1999/xlink" x="0px" y="0px"
	 viewBox="0 0 1000 1000" style="enable-background:new 0 0 1000 1000;" xml:space="preserve">
<style type="text/css">
	.st0{stroke:#000000;stroke-width:56;stroke-linecap:round;stroke-miterlimit:10;}
	.st1{fill:none;stroke:#000000;stroke-width:55;stroke-linecap:round;stroke-linejoin:round;stroke-miterlimit:10;}
</style>
<g>
	<path d="M269.28,333.41c0-31.95-27.7-50.57-47.71-32.08L28.05,480.16c-17.5,16.17-17.39,42.38,0.25,58.42l193.46,175.98
		c20.03,18.22,47.52-0.44,47.52-32.25V333.41z"/>
	<path class="st0" d="M148.72,507.86c127.53,0,456.51,0,584.04,0"/>
	<path class="st1" d="M366.5,812.5l0.29,62.17c0,45.52,31.05,82.43,69.36,82.43h455.15c38.31,0,69.36-36.9,69.36-82.43V124.43
		c0-45.52-31.05-82.43-69.36-82.43H436.15c-38.31,0-69.36,36.9-69.36,82.43l-0.29,74.07"/>
</g>
</svg>
