<?xml version="1.0" encoding="utf-8"?>
<!-- Generator: Adobe Illustrator 27.0.0, SVG Export Plug-In . SVG Version: 6.00 Build 0)  -->
<svg version="1.1" xmlns="http://www.w3.org/2000/svg" xmlns:xlink="http://www.w3.org/1999/xlink" x="0px" y="0px"
	 viewBox="0 0 1000 1000" style="enable-background:new 0 0 1000 1000;" xml:space="preserve">
<style type="text/css">
	.st0{display:none;}
</style>
<g id="Layer_1">
</g>
<g id="Layer_2" class="st0">
	
		<image style="display:inline;overflow:visible;" width="360" height="437" xlink:href="../../../../../../Desktop/png-transparent-password-manager-computer-icons-password-strength-password-safe-chang-miscellaneous-password-strength-password-safe-thumbnail.png"  transform="matrix(2.2897 0 0 2.2897 87.7416 0)">
	</image>
</g>
<g id="Layer_3">
	<g>
		<path d="M926.7,157c18.3,0,33.3,14.9,33.3,33.3v619.5c0,18.3-14.9,33.3-33.3,33.3H73.3C54.9,843,40,828.1,40,809.7V190.3
			c0-18.3,14.9-33.3,33.3-33.3H926.7 M926.7,117H73.3C32.8,117,0,149.8,0,190.3v619.5C0,850.2,32.8,883,73.3,883h853.5
			c40.5,0,73.3-32.8,73.3-73.3V190.3C1000,149.8,967.2,117,926.7,117L926.7,117z"/>
	</g>
	<g>
		<path d="M895.4,153c29.8,0,47.7,18,31.5,31.6L528.9,518c-7.4,6.2-19.4,9.3-31.5,9.3c-12.1,0-24.1-3.1-31.5-9.3L69.3,184.5
			c-16.2-13.6,1.7-31.5,31.5-31.5H895.4 M895.4,113H100.8c-35.7,0-65,16.8-74.5,42.8c-7.7,21.2-1.1,43.9,17.2,59.3l396.7,333.5
			c19.4,16.3,44.2,18.7,57.2,18.7c13,0,37.8-2.4,57.2-18.6l397.9-333.5c18.4-15.4,25-38.1,17.3-59.3
			C960.4,129.8,931.2,113,895.4,113L895.4,113z"/>
	</g>
</g>
</svg>
