<?xml version="1.0" encoding="UTF-8"?>
<svg id="Layer_1" data-name="Layer 1" xmlns="http://www.w3.org/2000/svg" viewBox="0 0 524.08 517">
  <defs>
    <style>
      .cls-1 {
        fill: none;
        stroke: #231f20;
        stroke-miterlimit: 10;
        stroke-width: 100px;
      }

      .cls-2 {
        fill: #231f20;
      }
    </style>
  </defs>
  <path class="cls-2" d="M185,40c38.83,0,75.31,14.89,102.72,41.93,27.26,26.89,42.28,62.61,42.28,100.57s-15.01,73.68-42.28,100.57c-27.41,27.04-63.89,41.93-102.72,41.93s-75.31-14.89-102.72-41.93c-27.26-26.89-42.28-62.61-42.28-100.57s15.01-73.68,42.28-100.57c27.41-27.04,63.89-41.93,102.72-41.93m0-40C82.83,0,0,81.71,0,182.5s82.83,182.5,185,182.5,185-81.71,185-182.5S287.17,0,185,0h0Z"/>
  <g>
    <path class="cls-2" d="M473.4,516.5c-27.67,0-50.18-22.21-50.18-49.5s22.51-49.5,50.18-49.5,50.19,22.21,50.19,49.5-22.51,49.5-50.19,49.5Z"/>
    <path class="cls-2" d="M473.4,418c27.4,0,49.68,21.98,49.68,49s-22.29,49-49.68,49-49.68-21.98-49.68-49,22.29-49,49.68-49m0-1c-27.99,0-50.68,22.39-50.68,50s22.69,50,50.68,50,50.68-22.39,50.68-50-22.69-50-50.68-50h0Z"/>
  </g>
  <line class="cls-1" x1="303.29" y1="299.19" x2="473.4" y2="467"/>
</svg>