<?xml version="1.0" encoding="utf-8"?>
<!-- Generator: Adobe Illustrator 27.0.0, SVG Export Plug-In . SVG Version: 6.00 Build 0)  -->
<svg version="1.1" id="Layer_1" xmlns="http://www.w3.org/2000/svg" xmlns:xlink="http://www.w3.org/1999/xlink" x="0px" y="0px"
	 viewBox="0 0 1000 1000" style="enable-background:new 0 0 1000 1000;" xml:space="preserve">
<g>
	<path d="M357,129.5l363,363l-363,363V129.5 M357,109.5c-2.58,0-5.17,0.5-7.65,1.52c-7.47,3.1-12.35,10.39-12.35,18.48v726
		c0,8.09,4.87,15.38,12.35,18.48c2.47,1.02,5.07,1.52,7.65,1.52c5.21,0,10.32-2.03,14.15-5.86l363-363c7.81-7.81,7.81-20.47,0-28.28
		l-363-363C367.32,111.53,362.2,109.5,357,109.5L357,109.5z"/>
</g>
</svg>
